<svg xmlns="http://www.w3.org/2000/svg" width="16.192" height="16.192" viewBox="0 0 16.192 16.192">
  <path id="Icon_ionic-ios-person" data-name="Icon ionic-ios-person" d="M20.684,20.283c-.3-1.341-2.037-1.995-2.635-2.205a19.649,19.649,0,0,0-2.2-.422,2.232,2.232,0,0,1-1.016-.468,8.882,8.882,0,0,1-.067-2.079,6.255,6.255,0,0,0,.481-.915,11.8,11.8,0,0,0,.354-1.6s.346,0,.468-.607a5.974,5.974,0,0,0,.312-1.413c-.025-.485-.291-.472-.291-.472a7.393,7.393,0,0,0,.287-2.163A3.474,3.474,0,0,0,12.6,4.5,3.459,3.459,0,0,0,8.818,7.941,7.712,7.712,0,0,0,9.1,10.1s-.266-.013-.291.472a5.974,5.974,0,0,0,.312,1.413c.118.607.468.607.468.607a11.8,11.8,0,0,0,.354,1.6,6.255,6.255,0,0,0,.481.915,8.882,8.882,0,0,1-.067,2.079,2.232,2.232,0,0,1-1.016.468,19.649,19.649,0,0,0-2.2.422c-.6.211-2.332.864-2.635,2.205a.337.337,0,0,0,.333.409H20.355A.336.336,0,0,0,20.684,20.283Z" transform="translate(-4.501 -4.5)" fill="#fff"/>
</svg>
