<svg xmlns="http://www.w3.org/2000/svg" xmlns:xlink="http://www.w3.org/1999/xlink" width="158" height="158" viewBox="0 0 158 158">
  <defs>
    <linearGradient id="linear-gradient" x1="0.5" y1="0.418" x2="1" y2="0.5" gradientUnits="objectBoundingBox">
      <stop offset="0" stop-color="#022457"/>
      <stop offset="1" stop-color="#1858da"/>
    </linearGradient>
  </defs>
  <g id="Group_1512" data-name="Group 1512" transform="translate(-543 -1032)">
    <circle id="Ellipse_6" data-name="Ellipse 6" cx="79" cy="79" r="79" transform="translate(543 1032)" fill="url(#linear-gradient)"/>
    <g id="Group_1508" data-name="Group 1508" transform="translate(578 1069)">
      <path id="Path_5407" data-name="Path 5407" d="M608.4,309.542H592.372v10.146H608.4Zm-4.445,1.355-3.571,2.852-3.57-2.852Zm3.09,7.436H593.727V310.9h.919l5.742,4.585,5.742-4.585h.919Z" transform="translate(-531.717 -295.754)" fill="#fff"/>
      <path id="Path_5408" data-name="Path 5408" d="M559.867,387.822a11.156,11.156,0,0,0,3.226,6.781,1.172,1.172,0,0,0,.826.341,1.149,1.149,0,0,0,.353-.056,1.168,1.168,0,0,0,.8-.912,3.558,3.558,0,0,1,3.5-2.951h5.84a3.539,3.539,0,0,1,3.318,2.282,1.17,1.17,0,0,0,2.006.306,11.161,11.161,0,0,0-7.607-18.056c-.4-.039-.781-.06-1.144-.06a11.183,11.183,0,0,0-11.123,12.324Zm11.123,1.512a4.234,4.234,0,1,1,4.234-4.234A4.238,4.238,0,0,1,570.989,389.334Zm-6.553-8.587a8.853,8.853,0,0,1,6.553-2.909c.285,0,.593.016.914.048a8.823,8.823,0,0,1,6.951,12.809,5.84,5.84,0,0,0-3.637-1.952,5.588,5.588,0,1,0-8.292.182,5.883,5.883,0,0,0-3.365,2.554,8.848,8.848,0,0,1,.876-10.733Z" transform="translate(-521.212 -317.032)" fill="#fff"/>
      <path id="Path_5409" data-name="Path 5409" d="M513.953,344.4a1.17,1.17,0,0,0,1.992-.833v-1.029a7.081,7.081,0,0,1,6.292-7.044l.041-.005a7.318,7.318,0,0,1,.761-.043h10.178a7.1,7.1,0,0,1,7.094,7.092v1.029a1.171,1.171,0,0,0,1.993.833,20.186,20.186,0,1,0-28.352,0ZM529.2,333.1h-2.158a7.776,7.776,0,1,1,2.158,0Zm-1.077-20.895a17.862,17.862,0,0,1,17.843,17.842,17.672,17.672,0,0,1-3.507,10.609,9.452,9.452,0,0,0-8.338-7.509,9.807,9.807,0,1,0-12,0l-.091.007a1.084,1.084,0,0,0-.142.017,9.421,9.421,0,0,0-8.106,7.483,17.676,17.676,0,0,1-3.508-10.609A17.863,17.863,0,0,1,528.127,312.209Z" transform="translate(-504.479 -295.86)" fill="#fff"/>
      <path id="Path_5410" data-name="Path 5410" d="M597,324.271a15.123,15.123,0,1,0-15.122-15.123A15.14,15.14,0,0,0,597,324.271Zm0-27.906a12.783,12.783,0,1,1-12.782,12.782A12.8,12.8,0,0,1,597,296.365Z" transform="translate(-528.332 -290.748)" fill="#fff"/>
      <path id="Path_5411" data-name="Path 5411" d="M502.83,323.379a23.618,23.618,0,0,0,33.821,21.334l4.623,5.145a14.454,14.454,0,0,0,9.865,23.358c.478.048.971.072,1.468.072a14.483,14.483,0,0,0,10.715-4.751,14.456,14.456,0,0,0-9.252-24.086,14.6,14.6,0,0,0-8.5,1.78l-4.121-4.585a23.738,23.738,0,0,0,8.683-18.267,23.463,23.463,0,0,0-.676-5.562l5.607-1.983a18.387,18.387,0,1,0-1.959-8.247,18.1,18.1,0,0,0,.237,2.9l-5.861,2.071a23.631,23.631,0,0,0-44.647,10.822Zm23.648-21.308A21.4,21.4,0,0,1,545.823,314.5a1.17,1.17,0,0,0,1.452.613l7.791-2.753a1.17,1.17,0,0,0,.753-1.352,16.046,16.046,0,1,1,.929,2.907,1.172,1.172,0,0,0-1.465-.641l-7.629,2.7a1.17,1.17,0,0,0-.733,1.432,21.176,21.176,0,0,1-7.876,23.148,1.171,1.171,0,0,0-.179,1.726l5.607,6.236a1.169,1.169,0,0,0,1.508.2,12.275,12.275,0,0,1,7.86-1.932,12.115,12.115,0,0,1-1.233,24.167c-.419,0-.834-.02-1.236-.06a12.115,12.115,0,0,1-7.791-20.137c.033-.03.106-.1.136-.137a1.17,1.17,0,0,0-.012-1.551l-5.911-6.577a1.17,1.17,0,0,0-1.417-.253,21,21,0,0,1-9.9,2.459,21.309,21.309,0,0,1,0-42.619Z" transform="translate(-502.83 -289.188)" fill="#fff"/>
    </g>
  </g>
</svg>
